HIERARCHY
ROOT Hips
{
	OFFSET 0.000000 0.000000 0.000000
	CHANNELS 6 Xposition Yposition Zposition Xrotation Yrotation Zrotation
	JOINT LeftUpLeg_virtual
	{
		OFFSET 0.000000 0.000000 0.000000
		CHANNELS 3 Xrotation Yrotation Zrotation
		JOINT LeftUpLeg
		{
			OFFSET 11.394100 -6.187798 -0.413800
			CHANNELS 3 Xrotation Yrotation Zrotation
			JOINT LeftLeg
			{
				OFFSET 0.430247 -32.302673 3.732800
				CHANNELS 3 Xrotation Yrotation Zrotation
				JOINT LeftFoot
				{
					OFFSET -0.430247 -48.264931 -6.423300
					CHANNELS 3 Xrotation Yrotation Zrotation
					JOINT LeftToeBase
					{
						OFFSET 4.230900 -16.068199 23.438400
						CHANNELS 3 Xrotation Yrotation Zrotation
						JOINT LeftToe_End
						{
							OFFSET 4.510700 0.695400 19.974600
							CHANNELS 3 Xrotation Yrotation Zrotation
							End Site
							{
								OFFSET 0 0 0
							}
						}
					}
				}
			}
		}
	}
	JOINT RightUpLeg_virtual
	{
		OFFSET 0.000000 0.000000 0.000000
		CHANNELS 3 Xrotation Yrotation Zrotation
		JOINT RightUpLeg
		{
			OFFSET -11.333700 -6.187798 -0.413800
			CHANNELS 3 Xrotation Yrotation Zrotation
			JOINT RightLeg
			{
				OFFSET -0.430392 -32.302628 3.733000
				CHANNELS 3 Xrotation Yrotation Zrotation
				JOINT RightFoot
				{
					OFFSET 0.430392 -48.264973 -6.423500
					CHANNELS 3 Xrotation Yrotation Zrotation
					JOINT RightToeBase
					{
						OFFSET -4.230900 -16.068199 23.438400
						CHANNELS 3 Xrotation Yrotation Zrotation
						JOINT RightToe_End
						{
							OFFSET -4.510700 0.695400 19.974600
							CHANNELS 3 Xrotation Yrotation Zrotation
							End Site
							{
								OFFSET 0 0 0
							}
						}
					}
				}
			}
		}
	}
	JOINT Spine_virtual
	{
		OFFSET 0.000000 0.000000 0.000000
		CHANNELS 3 Xrotation Yrotation Zrotation
		JOINT Spine
		{
			OFFSET -0.002400 12.777504 0.315300
			CHANNELS 3 Xrotation Yrotation Zrotation
			JOINT Spine1
			{
				OFFSET -0.002067 5.816869 0.032633
				CHANNELS 3 Xrotation Yrotation Zrotation
				JOINT Spine1_split
				{
					OFFSET -0.002067 5.816869 0.032633
					CHANNELS 3 Xrotation Yrotation Zrotation
					JOINT Spine2
					{
						OFFSET -0.002067 5.816869 0.032633
						CHANNELS 3 Xrotation Yrotation Zrotation
						JOINT Neck_virtual
						{
							OFFSET 0.000000 0.000000 0.000000
							CHANNELS 3 Xrotation Yrotation Zrotation
							JOINT Neck
							{
								OFFSET -0.003700 21.199493 -0.826900
								CHANNELS 3 Xrotation Yrotation Zrotation
								JOINT Head
								{
									OFFSET 0.000000 20.442200 4.834800
									CHANNELS 3 Xrotation Yrotation Zrotation
									JOINT HeadTop_End
									{
										OFFSET 0.000000 34.668396 4.968400
										CHANNELS 3 Xrotation Yrotation Zrotation
										End Site
										{
											OFFSET 0 0 0
										}
									}
								}
							}
						}
						JOINT LeftShoulder_virtual
						{
							OFFSET 0.000000 0.000000 0.000000
							CHANNELS 3 Xrotation Yrotation Zrotation
							JOINT LeftShoulder
							{
								OFFSET 3.288150 8.794197 -1.372250
								CHANNELS 3 Xrotation Yrotation Zrotation
								JOINT LeftShoulder_split
								{
									OFFSET 3.288150 8.794197 -1.372250
									CHANNELS 3 Xrotation Yrotation Zrotation
									JOINT LeftArm
									{
										OFFSET 11.953299 -2.279007 -0.146200
										CHANNELS 3 Xrotation Yrotation Zrotation
										JOINT LeftForeArm
										{
											OFFSET 18.448900 0.000000 0.000000
											CHANNELS 3 Xrotation Yrotation Zrotation
											JOINT LeftHand
											{
												OFFSET 29.527798 0.000000 0.000000
												CHANNELS 3 Xrotation Yrotation Zrotation
												End Site
												{
													OFFSET 0 0 0
												}
											}
										}
									}
								}
							}
						}
						JOINT RightShoulder_virtual
						{
							OFFSET 0.000000 0.000000 0.000000
							CHANNELS 3 Xrotation Yrotation Zrotation
							JOINT RightShoulder
							{
								OFFSET -3.249400 8.794197 -1.372250
								CHANNELS 3 Xrotation Yrotation Zrotation
								JOINT RightShoulder_split
								{
									OFFSET -3.249400 8.794197 -1.372250
									CHANNELS 3 Xrotation Yrotation Zrotation
									JOINT RightArm
									{
										OFFSET -11.953299 -2.279007 -0.146200
										CHANNELS 3 Xrotation Yrotation Zrotation
										JOINT RightForeArm
										{
											OFFSET -18.448900 0.000000 0.000000
											CHANNELS 3 Xrotation Yrotation Zrotation
											JOINT RightHand
											{
												OFFSET -29.527802 0.000000 0.000000
												CHANNELS 3 Xrotation Yrotation Zrotation
												End Site
												{
													OFFSET 0 0 0
												}
											}
										}
									}
								}
							}
						}
					}
				}
			}
		}
	}
}
MOTION
Frames: 10
Frame Time: 0.03333333
103.331329 111.834015 189.622147 0.000000 0.000000 0.000000 -124.036946 -60.239325 167.942071 -56.561930 -5.498564 15.882884 88.411464 1.684648 -4.530730 0.709693 -12.476258 1.451631 -0.220651 0.339076 -8.230713 0.000000 0.000000 0.000000 -106.023742 -70.840222 179.529173 -72.060961 4.837225 -42.571681 64.876101 11.516670 -4.916507 -3.885306 0.020102 17.062157 8.382990 0.203591 -5.425436 0.000000 0.000000 0.000000 -119.780809 -61.755845 174.368200 13.748630 3.883702 1.376901 -2.158644 1.455278 6.819182 0.128310 0.814399 1.494216 0.000000 0.000000 0.000000 1.383829 1.557842 5.579690 20.230310 5.086879 10.569941 16.464712 38.444478 -21.919143 0.000000 0.000000 0.000000 0.454769 1.506019 6.453247 1.619743 -9.530136 10.002037 4.651559 1.499862 1.672410 2.947626 13.321892 -1.278031 4.058757 -35.786250 -0.693561 0.000000 0.000000 0.000000 -1.154149 1.862259 5.916691 2.108564 4.272764 18.728527 -0.222403 -0.772654 -0.095037 -18.253349 23.736186 14.348153 2.108366 22.322416 -2.732133 0.000000 0.000000 0.000000 
109.890839 105.100540 199.511520 0.000000 0.000000 0.000000 -122.435444 -56.517896 169.060474 -55.019035 -5.562723 12.170475 87.077440 3.496879 -3.219900 5.654013 -9.517747 2.904741 0.722508 0.336092 -7.713160 0.000000 0.000000 0.000000 -106.661136 -65.646710 178.080339 -72.709959 4.603340 -38.949939 59.102597 10.113173 -4.818271 5.013644 -0.325222 15.731227 5.218582 -0.397715 -3.493142 0.000000 0.000000 0.000000 -119.218794 -57.797962 173.698923 14.817937 3.844868 0.735047 -1.418877 2.328667 6.060264 0.006730 1.326061 1.998614 0.000000 0.000000 0.000000 1.345946 2.438977 4.629098 20.158993 5.142546 8.541528 16.276771 35.288401 -20.912091 0.000000 0.000000 0.000000 0.718875 2.318836 5.366092 1.896035 -8.882632 9.155123 2.850283 2.197119 1.326524 0.272829 18.404932 -0.144704 4.392207 -36.443079 -0.552478 0.000000 0.000000 0.000000 -1.090233 2.843558 5.040190 1.676229 6.381691 20.168143 -0.273341 -2.604253 -0.098602 -20.247664 23.988693 17.230587 2.452390 29.001909 -2.601869 0.000000 0.000000 0.000000 
116.171005 95.717308 210.710892 0.000000 0.000000 0.000000 -120.102115 -50.322553 171.536663 -51.812299 -3.812511 10.282879 83.438042 5.248094 -1.880974 7.536687 -5.263206 2.921431 0.884772 0.412107 -6.633142 0.000000 0.000000 0.000000 -108.720083 -57.961586 175.247682 -76.335690 8.191086 -33.063908 53.692561 8.421966 -5.126805 13.987882 0.596733 15.585221 3.669366 -1.252870 -1.632007 0.000000 0.000000 0.000000 -117.216114 -51.816089 175.196729 16.058526 3.376707 0.274039 -0.546566 3.083842 5.749968 0.378293 1.526900 2.257595 0.000000 0.000000 0.000000 1.293411 3.320948 4.242006 19.323507 4.924017 6.931896 15.397137 31.731027 -19.213887 0.000000 0.000000 0.000000 0.995783 3.099186 4.904621 2.085586 -7.081390 7.711138 2.156025 3.164769 0.026436 -3.416321 23.868024 0.441680 3.947914 -43.183639 -0.734989 0.000000 0.000000 0.000000 -1.048166 3.740836 4.805080 1.348407 7.660093 21.045213 -0.130343 -3.361999 0.309801 -23.640577 22.523440 21.197463 2.187696 37.919025 -1.883281 0.000000 0.000000 0.000000 
122.173737 83.694054 222.687927 0.000000 0.000000 0.000000 -118.229004 -41.419589 173.965710 -47.375712 0.505777 10.581560 77.296452 5.660463 -0.554848 5.445779 -1.255464 1.375292 0.484638 0.420680 -4.663706 0.000000 0.000000 0.000000 -110.468290 -48.216358 172.556738 -84.358895 13.808396 -24.779095 49.713795 7.217324 -5.836258 21.668051 3.063525 16.428080 4.604902 -1.936200 -0.792973 0.000000 0.000000 0.000000 -115.095026 -43.896403 177.117105 17.250795 2.305862 -0.043064 0.404702 3.505586 5.998185 0.734002 0.043821 2.235395 0.000000 0.000000 0.000000 1.330011 4.011611 4.515644 18.278809 4.407653 5.935169 13.906011 27.759052 -17.077927 0.000000 0.000000 0.000000 1.277673 3.732109 5.190770 2.336802 -5.105795 5.493078 2.861401 3.723695 -1.601245 -6.294397 28.130293 -0.186714 3.148810 -54.300694 -1.183434 0.000000 0.000000 0.000000 -0.949097 4.404578 5.340076 1.273599 7.721156 21.401484 0.010359 -2.927662 0.615616 -26.990346 19.759958 25.774279 0.912383 47.511855 -0.316685 0.000000 0.000000 0.000000 
128.097656 70.606964 234.586365 0.000000 0.000000 0.000000 -117.023912 -30.880422 175.447862 -43.922337 7.575139 13.540744 70.273931 3.990313 -0.130990 0.368459 1.838346 -1.074380 0.433150 0.441696 -2.177892 0.000000 0.000000 0.000000 -111.190173 -37.257722 171.009263 -97.011137 18.178933 -14.331521 48.595112 6.815353 -6.625500 27.709502 6.586141 17.640114 6.545680 -2.263208 -0.916676 0.000000 0.000000 0.000000 -113.390313 -34.341829 178.826319 18.182423 0.785663 -0.228274 1.315077 3.594632 6.611728 1.136945 -1.805505 1.915195 0.000000 0.000000 0.000000 1.450859 4.406497 5.213582 17.756431 3.428808 5.700202 12.653080 23.473699 -15.096412 0.000000 0.000000 0.000000 1.575189 4.060749 5.938262 2.799528 -3.587297 2.496916 4.759657 3.136116 -2.648142 -7.299510 28.676447 -2.120448 3.332635 -64.631239 -1.061899 0.000000 0.000000 0.000000 -0.611779 4.771324 6.304998 1.439002 6.287583 21.716124 0.044169 -2.026213 0.648220 -28.922562 16.897977 30.255846 -1.496155 55.870698 2.049735 0.000000 0.000000 0.000000 
134.143036 58.491669 246.157913 0.000000 0.000000 0.000000 -116.240503 -20.129746 175.766654 -42.005879 15.899673 19.546296 65.681155 0.986527 -1.615214 -5.635312 4.134716 -2.807049 1.298695 0.536001 -0.017706 0.000000 0.000000 0.000000 -110.328032 -26.656128 170.088526 -110.568871 18.429285 -3.884461 50.253120 6.730309 -7.082840 31.850463 10.081891 18.064413 8.212835 -2.319661 -1.356996 0.000000 0.000000 0.000000 -111.954300 -24.607589 -179.962767 18.495608 -0.999750 -0.315940 2.055787 3.429467 7.155589 1.162572 -4.215669 1.251778 0.000000 0.000000 0.000000 1.626750 4.485201 5.883401 18.102487 2.364944 6.204345 12.269694 19.084486 -13.532354 0.000000 0.000000 0.000000 1.935539 4.134397 6.553250 3.486860 -3.335374 -0.917410 6.474457 1.807253 -2.654405 -5.639999 25.320505 -5.127864 5.220747 -69.969032 0.609368 0.000000 0.000000 0.000000 -0.031041 4.835795 7.166986 1.741766 3.299724 22.348982 0.190887 -0.492656 0.080925 -29.021262 15.021838 33.962108 -4.526810 61.904081 4.726497 0.000000 0.000000 0.000000 
140.314651 49.338894 255.842148 0.000000 0.000000 0.000000 -115.341159 -11.368174 175.130408 -42.095648 23.289244 28.177443 65.518699 -1.655062 -4.950307 -10.621024 5.935999 -2.030448 3.441617 0.826806 0.879533 0.000000 0.000000 0.000000 -108.264181 -17.637657 170.016686 -120.518647 14.799837 3.489098 54.375245 6.114773 -6.743123 34.522829 12.028588 16.474703 7.827609 -2.198465 -1.075653 0.000000 0.000000 0.000000 -111.091142 -15.934305 179.894082 17.699129 -2.622892 -0.199054 2.470325 3.222060 7.176091 0.770509 -7.245366 0.469538 0.000000 0.000000 0.000000 1.850310 4.349603 6.006429 19.176422 1.108932 7.057858 12.961980 14.671562 -12.425843 0.000000 0.000000 0.000000 2.232656 4.029076 6.499561 4.296318 -4.476210 -3.811192 7.380182 0.292210 -1.923994 -2.030345 18.405261 -7.601820 7.085021 -70.560137 2.504658 0.000000 0.000000 0.000000 0.679865 4.801691 7.392140 2.286145 -1.112723 23.330690 -0.122682 0.629313 -0.919817 -27.848139 14.583398 36.236090 -6.871214 65.157682 6.397291 0.000000 0.000000 0.000000 
146.442093 44.640564 263.835083 0.000000 0.000000 0.000000 -114.049194 -5.453523 173.906670 -44.006499 27.213929 38.341564 69.677369 -3.489333 -8.902749 -12.422820 6.812632 0.773653 5.092224 1.254216 0.440091 0.000000 0.000000 0.000000 -105.882248 -10.768671 170.334222 -125.180237 9.663930 7.785023 59.516254 4.662434 -5.452628 35.278491 11.953640 12.783336 5.158371 -2.030567 0.558403 0.000000 0.000000 0.000000 -110.683113 -9.246945 179.243261 15.750449 -3.658062 0.166550 2.463971 3.164390 6.346846 -0.095767 -9.170422 0.124227 0.000000 0.000000 0.000000 2.106281 4.143082 5.294769 20.395435 -0.144571 7.840440 14.692738 10.537805 -11.727692 0.000000 0.000000 0.000000 2.390639 3.851831 5.428700 5.111702 -6.235472 -5.303644 8.019710 -0.312587 -1.538090 2.945864 10.231447 -7.952070 8.029819 -70.414838 3.807098 0.000000 0.000000 0.000000 1.393839 4.713148 6.587219 3.063286 -6.689019 24.545758 -0.383102 1.657336 -1.737976 -26.602817 15.284078 36.401548 -7.941849 66.889436 6.564020 0.000000 0.000000 0.000000 
151.969406 43.521427 269.398407 0.000000 0.000000 0.000000 -112.714855 -2.233936 172.696839 -45.263783 26.593290 47.226824 75.375160 -5.010202 -11.966257 -10.163403 6.362857 4.095377 5.221008 1.569736 -0.874856 0.000000 0.000000 0.000000 -103.685174 -5.912993 170.187987 -124.984443 5.548180 10.550847 64.350429 3.149803 -3.689074 33.151751 10.991280 7.679815 3.196363 -1.855706 2.652134 0.000000 0.000000 0.000000 -110.720870 -4.911587 177.968843 12.754612 -3.838909 0.698408 2.073993 3.289924 4.683196 -1.142256 -10.316695 0.009151 0.000000 0.000000 0.000000 2.366166 3.988781 3.771285 20.530116 -1.263141 7.938951 16.241881 7.004874 -11.029401 0.000000 0.000000 0.000000 2.398355 3.835352 3.522415 6.063265 -8.252061 -4.430789 8.319561 -0.160360 -1.820848 9.866892 4.400378 -6.220704 8.245115 -74.124833 4.797696 0.000000 0.000000 0.000000 1.931336 4.625072 4.811919 4.100338 -12.901432 25.379781 -0.679640 2.716435 -1.719330 -26.553885 15.557702 34.387953 -8.894377 69.487292 6.725852 0.000000 0.000000 0.000000 
156.250137 44.449272 272.644318 0.000000 0.000000 0.000000 -112.028394 -0.982432 171.800759 -46.167400 22.011166 53.347568 78.818532 -6.243341 -13.591025 -4.301362 4.275847 6.471978 4.308643 1.697942 -2.644149 0.000000 0.000000 0.000000 -102.792052 -2.615949 169.748779 -121.351042 4.313600 12.681879 68.718151 2.666079 -2.139465 28.779497 10.836650 3.546348 2.954461 -1.396668 3.733761 0.000000 0.000000 0.000000 -111.478099 -2.557280 176.506677 9.379297 -3.073009 1.288046 1.426656 3.626926 2.524219 -1.407806 -9.891020 0.598212 0.000000 0.000000 0.000000 2.648531 3.981050 1.758466 18.779617 -2.473834 7.110287 16.568676 4.033402 -10.233009 0.000000 0.000000 0.000000 2.213692 4.059385 1.269583 7.357254 -9.825163 -0.906359 9.196641 0.488172 -2.799972 18.453668 1.656958 -3.772805 9.246614 -83.293549 6.742250 0.000000 0.000000 0.000000 2.313697 4.646147 2.426632 5.353163 -19.291898 25.178562 -1.080507 3.444046 -0.754921 -29.429636 13.753487 30.400171 -12.283920 74.926069 9.607662 0.000000 0.000000 0.000000 
